<?xml version="1.0" encoding="UTF-8"?>
<svg width="80px" height="80px" viewBox="0 0 80 80" version="1.1" xmlns="http://www.w3.org/2000/svg" xmlns:xlink="http://www.w3.org/1999/xlink">
    <!-- Generator: Sketch 61.2 (89653) - https://sketch.com -->
    <title>Group 31 Copy</title>
    <desc>Created with Sketch.</desc>
    <g id="Screens" stroke="none" stroke-width="1" fill="none" fill-rule="evenodd">
        <g id="01_2_Dashboard-More" transform="translate(-797.000000, -1160.000000)" fill-rule="nonzero">
            <g id="Group-11" transform="translate(81.000000, 1063.000000)">
                <g id="Group-31-Copy" transform="translate(716.000000, 97.000000)">
                    <circle id="Oval" fill="#FF6838" cx="40" cy="40" r="40"></circle>
                    <path d="M79.8673437,36.7423438 L62.1796875,19.2265625 L17.7929687,30.9317188 L28.2090625,41.2810937 L26.5879687,41.2554688 L16.79125,31.4589063 L16.79125,32.4673438 L17.8675,41.1176563 L27.9526562,51.1351562 L26.4248437,51.17625 L16.79125,41.569375 L16.79125,42.416875 L18.0514062,51.4001562 L25.2345312,58.5357812 L24.1229687,58.9964062 L16.79125,51.6815625 L16.79125,52.6854687 L18.0514062,61.5125 L36.460625,79.8423437 C37.6270312,79.9446875 38.8070312,80 40,80 C62.0914062,80 80,62.0914062 80,40 C80,38.903125 79.9540625,37.8170312 79.8673437,36.7423438 Z" id="Path" fill="#AE4E32"></path>
                    <path d="M40,14.16625 C39.9875,14.16625 39.975,14.16625 39.9625,14.16625 C39.9576563,14.16625 39.9528125,14.16625 39.9479688,14.16625 L39.9479688,14.16625 C27.1542188,14.1751563 16.7914063,17.386875 16.7914063,21.3478125 L16.7914063,28.8392188 C16.7914063,32.8054688 27.1823438,36.0207813 40,36.0207813 C52.8176563,36.0207813 63.2085938,32.8054688 63.2085938,28.8392188 L63.2085938,21.3478125 C63.2085938,17.3815625 52.8178125,14.16625 40,14.16625 Z" id="Path" fill="#E0E0E0"></path>
                    <ellipse id="Oval" fill="#FFFFFF" cx="40" cy="21.3484375" rx="23.2078125" ry="7.1815625"></ellipse>
                    <path d="M40,14.16625 C39.9826563,14.16625 39.9653125,14.1664063 39.9479688,14.1664063 L39.9479688,28.5290625 C39.9653125,28.5290625 39.9826563,28.5292188 40,28.5292188 C52.8178125,28.5292188 63.2085938,25.3139063 63.2085938,21.3476563 C63.2085938,17.3815625 52.8178125,14.16625 40,14.16625 Z" id="Path" fill="#E0E0E0"></path>
                    <path d="M40,28.529375 C39.9826563,28.529375 39.9653125,28.5292188 39.9479688,28.5292188 L39.9479688,36.020625 C39.9653125,36.020625 39.9826563,36.0207813 40,36.0207813 C52.8178125,36.0207813 63.2085938,32.8054688 63.2085938,28.8392188 L63.2085938,21.3478125 C63.2085938,25.3140625 52.8178125,28.529375 40,28.529375 Z" id="Path" fill="#C0C0C0"></path>
                    <path d="M16.7914063,38.9504688 C16.7914063,42.9167188 27.1823438,46.1320313 40,46.1320313 C52.8176563,46.1320313 63.2085937,42.9167188 63.2085937,38.9504688 L63.2085937,31.4590625 C63.2085937,35.4253125 52.8176562,38.640625 40,38.640625 C27.1823438,38.640625 16.7914063,35.4253125 16.7914063,31.4590625 L16.7914063,38.9504688 Z" id="Path" fill="#E0E0E0"></path>
                    <path d="M40,38.640625 C39.9826563,38.640625 39.9653125,38.6404688 39.9479688,38.6404688 L39.9479688,46.131875 C39.9653125,46.131875 39.9826563,46.1320313 40,46.1320313 C52.8178125,46.1320313 63.2085938,42.9167188 63.2085938,38.9504688 L63.2085938,31.4590625 C63.2085938,35.4253125 52.8178125,38.640625 40,38.640625 Z" id="Path" fill="#C0C0C0"></path>
                    <path d="M16.7914063,49.0617187 C16.7914063,53.0279687 27.1823438,56.2432812 40,56.2432812 C52.8176563,56.2432812 63.2085937,53.0279687 63.2085937,49.0617187 L63.2085937,41.5703125 C63.2085937,45.5365625 52.8176562,48.751875 40,48.751875 C27.1823438,48.751875 16.7914063,45.5365625 16.7914063,41.5703125 L16.7914063,49.0617187 Z" id="Path" fill="#E0E0E0"></path>
                    <path d="M40,48.751875 C39.9826563,48.751875 39.9653125,48.7517187 39.9479688,48.7517187 L39.9479688,56.243125 C39.9653125,56.243125 39.9826563,56.2432812 40,56.2432812 C52.8178125,56.2432812 63.2085938,53.0279687 63.2085938,49.0617187 L63.2085938,41.5703125 C63.2085938,45.5365625 52.8178125,48.751875 40,48.751875 Z" id="Path" fill="#C0C0C0"></path>
                    <path d="M16.7914063,59.173125 C16.7914063,63.139375 27.1823438,66.3546875 40,66.3546875 C52.8176563,66.3546875 63.2085937,63.139375 63.2085937,59.173125 L63.2085937,51.6817188 C63.2085937,55.6479688 52.8176562,58.8632813 40,58.8632813 C27.1823438,58.8632813 16.7914063,55.6479688 16.7914063,51.6817188 L16.7914063,59.173125 Z" id="Path" fill="#E0E0E0"></path>
                    <path d="M40,58.863125 C39.9826563,58.863125 39.9653125,58.8629688 39.9479688,58.8629688 L39.9479688,66.354375 C39.9653125,66.354375 39.9826563,66.3545313 40,66.3545313 C52.8178125,66.3545313 63.2085938,63.1392188 63.2085938,59.1729688 L63.2085938,51.6815625 C63.2085938,55.6478125 52.8178125,58.863125 40,58.863125 Z" id="Path" fill="#C0C0C0"></path>
                </g>
            </g>
        </g>
    </g>
</svg>