<?xml version="1.0" encoding="UTF-8"?>
<svg width="80px" height="80px" viewBox="0 0 80 80" version="1.1" xmlns="http://www.w3.org/2000/svg" xmlns:xlink="http://www.w3.org/1999/xlink">
    <!-- Generator: Sketch 61.2 (89653) - https://sketch.com -->
    <title>drops</title>
    <desc>Created with Sketch.</desc>
    <g id="Screens" stroke="none" stroke-width="1" fill="none" fill-rule="evenodd">
        <g id="01_2_Dashboard-More" transform="translate(-185.000000, -375.000000)" fill-rule="nonzero">
            <g id="Group-12" transform="translate(81.000000, 277.000000)">
                <g id="Group-16" transform="translate(0.000000, 35.000000)">
                    <g id="drops" transform="translate(104.000000, 63.000000)">
                        <circle id="Oval" fill="#273B7A" cx="40" cy="40" r="40"></circle>
                        <path d="M54.2582813,77.3807813 C63.4898438,73.8575 71.0814063,67.015 75.5710938,58.31 L44.4446875,27.34 L43.9076563,34.4878125 L30.3571875,21.1009375 L27.160625,34.4496875 L22.8439062,45.7789063 L35.4609375,58.2182813 L35.0282812,58.328125 L54.2582813,77.3807813 Z" id="Path" fill="#121149"></path>
                        <path d="M19.7351562,38.2671875 C19.7351562,32.4010938 30.356875,21.100625 30.356875,21.100625 C30.356875,21.100625 40.9785938,32.4007812 40.9785938,38.2671875 C40.9785938,44.1335937 36.2232812,48.8889062 30.3571875,48.8889062 C24.4910937,48.8889062 19.7351562,44.1332812 19.7351562,38.2671875 Z" id="Path" fill="#38C6D9"></path>
                        <path d="M30.3571875,21.100625 C30.3571875,21.100625 40.9789062,32.4007813 40.9789062,38.2671875 C40.9789062,44.1335938 36.2232812,48.8889063 30.3571875,48.8889063 L30.3571875,21.100625 Z" id="Path" fill="#02B2B2"></path>
                        <path d="M31.1114063,48.8889063 C31.1114063,41.5251563 44.4446875,27.3401562 44.4446875,27.3401562 C44.4446875,27.3401562 57.7779687,41.5251563 57.7779687,48.8889063 C57.7779687,56.2526563 51.8084375,62.2221875 44.4446875,62.2221875 C37.0809375,62.2221875 31.1114063,56.2526563 31.1114063,48.8889063 Z" id="Path" fill="#8CEFF4"></path>
                        <path d="M44.4446875,27.34 C44.4446875,27.34 57.7779687,41.525 57.7779687,48.88875 C57.7779687,56.2525 51.8084375,62.2220313 44.4446875,62.2220313 L44.4446875,27.34 Z" id="Path" fill="#71E2EF"></path>
                    </g>
                </g>
            </g>
        </g>
    </g>
</svg>