<?xml version="1.0" encoding="UTF-8"?>
<svg width="80px" height="80px" viewBox="0 0 80 80" version="1.1" xmlns="http://www.w3.org/2000/svg" xmlns:xlink="http://www.w3.org/1999/xlink">
    <!-- Generator: Sketch 61.2 (89653) - https://sketch.com -->
    <title>money (5)</title>
    <desc>Created with Sketch.</desc>
    <g id="Screens" stroke="none" stroke-width="1" fill="none" fill-rule="evenodd">
        <g id="01_2_Dashboard-More" transform="translate(-185.000000, -768.000000)" fill-rule="nonzero">
            <g id="Group-16-Copy" transform="translate(81.000000, 705.000000)">
                <g id="money-(5)" transform="translate(104.000000, 63.000000)">
                    <circle id="Oval" fill="#FEEA3B" cx="40" cy="40" r="40"></circle>
                    <path d="M80,40 C80,35.9454687 79.3945312,32.0328125 78.2729687,28.345 L65.615625,15.6876562 L10.8854687,57.56 L32.6489062,79.3234375 C35.0320312,79.7660937 37.4885937,80 40,80 C62.0914062,80 80,62.0914062 80,40 Z" id="Path" fill="#FED500"></path>
                    <polygon id="Rectangle" fill="#0DA366" transform="translate(40.000568, 35.528151) rotate(168.269807) translate(-40.000568, -35.528151) " points="10.8866634 21.3098649 69.114473 21.3098649 69.114473 49.7464369 10.8866634 49.7464369"></polygon>
                    <polygon id="Path" fill="#0C8E56" points="65.6157812 15.6878125 39.9925 21.0082812 39.9925 50.0523437 71.3971875 43.5314062"></polygon>
                    <path d="M64.53,23.9721875 C61.6360937,24.573125 58.803125,22.7142188 58.2021875,19.8204687 C58.1915625,19.7692188 58.1834375,19.7179688 58.1742187,19.6667188 L16.9365625,28.229375 C16.9485938,28.28 16.9615625,28.3303125 16.9721875,28.3815625 C17.573125,31.2754688 15.7142187,34.1084375 12.8203125,34.709375 C12.8075,34.7120312 12.7946875,34.71375 12.781875,34.7164062 L15.3553125,47.1103125 C15.368125,47.1075 15.3804687,47.1040625 15.3932812,47.1014062 C18.2871875,46.5004687 21.1201562,48.359375 21.7210937,51.253125 C21.7317187,51.304375 21.7398437,51.355625 21.7490625,51.406875 L62.9867187,42.8442187 C62.9746875,42.7935937 62.9617187,42.7432812 62.9510937,42.6920312 C62.3501562,39.798125 64.2090625,36.9651562 67.1028125,36.3642187 C67.14125,36.35625 67.1796875,36.3504688 67.218125,36.3432813 L64.6439062,23.9454687 C64.6059375,23.9542187 64.5684375,23.9642188 64.53,23.9721875 Z" id="Path" fill="#11CC80"></path>
                    <path d="M64.6440625,23.9454687 C64.6059375,23.9542188 64.5684375,23.9642188 64.53,23.9721875 C61.6360937,24.573125 58.803125,22.7142188 58.2021875,19.8204687 C58.1915625,19.7692188 58.1834375,19.7179688 58.1742187,19.6667188 L39.9925,23.4420312 L39.9925,47.61875 L62.986875,42.8440625 C62.9748437,42.7934375 62.961875,42.743125 62.95125,42.691875 C62.3503125,39.7979687 64.2092187,36.965 67.103125,36.3640625 C67.1415625,36.3560937 67.18,36.3503125 67.2184375,36.343125 L64.6440625,23.9454687 Z" id="Path" fill="#0EA568"></path>
                    <ellipse id="Oval" fill="#0DA366" transform="translate(39.998628, 35.528551) rotate(-101.730193) translate(-39.998628, -35.528551) " cx="39.9986281" cy="35.5285511" rx="9.53093982" ry="6.71848524"></ellipse>
                    <path d="M46.5784375,34.1628125 C45.6976563,29.9214062 42.959375,26.7575 39.9926563,26.1895313 L39.9926563,44.8651562 C40.6357813,44.9901562 41.2895313,44.9954687 41.9378125,44.8607812 C45.5709375,44.1065625 47.6485938,39.316875 46.5784375,34.1628125 Z" id="Path" fill="#0C8E56"></path>
                    <rect id="Rectangle" fill="#0CC27C" x="10.8859375" y="29.121875" width="58.2296875" height="28.4375"></rect>
                    <rect id="Rectangle" fill="#0DA366" x="39.9921875" y="29.121875" width="29.121875" height="28.4375"></rect>
                    <path d="M66.3671875,37.013125 C63.4115625,37.013125 61.015625,34.6171875 61.015625,31.6615625 C61.015625,31.6092187 61.018125,31.5573437 61.0195312,31.5053125 L18.9023438,31.5053125 C18.9039062,31.5573437 18.90625,31.6092187 18.90625,31.6615625 C18.90625,34.6171875 16.5103125,37.013125 13.5546875,37.013125 C13.5415625,37.013125 13.52875,37.0121875 13.515625,37.0121875 L13.515625,49.6704687 C13.52875,49.6703125 13.5415625,49.6695312 13.5546875,49.6695312 C16.5103125,49.6695312 18.90625,52.0654687 18.90625,55.0210937 C18.90625,55.0734375 18.90375,55.1253125 18.9023438,55.1773437 L61.0196875,55.1773437 C61.018125,55.1253125 61.0157813,55.0734375 61.0157813,55.0210937 C61.0157813,52.0654687 63.4117188,49.6695312 66.3673438,49.6695312 C66.4065625,49.6695312 66.4454688,49.6717187 66.4845313,49.6725 L66.4845313,37.0103125 C66.4453125,37.0109375 66.4064063,37.013125 66.3671875,37.013125 Z" id="Path" fill="#83E276"></path>
                    <g id="Group" transform="translate(33.281250, 31.406250)" fill="#0CC27C">
                        <path d="M33.0859375,5.606875 C30.1303125,5.606875 27.734375,3.2109375 27.734375,0.2553125 C27.734375,0.20296875 27.736875,0.15109375 27.7382812,0.0990625 L6.71125,0.0990625 L6.71125,23.7709375 L27.7382812,23.7709375 C27.7367187,23.7189062 27.734375,23.6670312 27.734375,23.6146875 C27.734375,20.6590625 30.1303125,18.263125 33.0859375,18.263125 C33.1251562,18.263125 33.1640625,18.2653125 33.203125,18.2660937 L33.203125,5.60390625 C33.1640625,5.6046875 33.1251562,5.606875 33.0859375,5.606875 Z" id="Path"></path>
                        <ellipse id="Oval" cx="6.71875" cy="11.934375" rx="6.71875" ry="9.53125"></ellipse>
                    </g>
                    <path d="M40,33.81 C39.9975,33.81 39.995,33.8103125 39.9925,33.8103125 L39.9925,52.8723437 C39.995,52.8723437 39.9975,52.8726563 40,52.8726563 C43.710625,52.8726563 46.71875,48.6053125 46.71875,43.3414063 C46.71875,38.0775 43.710625,33.81 40,33.81 Z" id="Path" fill="#0DA366"></path>
                </g>
            </g>
        </g>
    </g>
</svg>