<?xml version="1.0" encoding="UTF-8"?>
<svg width="13px" height="17px" viewBox="0 0 13 17" version="1.1" xmlns="http://www.w3.org/2000/svg" xmlns:xlink="http://www.w3.org/1999/xlink">
    <!-- Generator: Sketch 61.2 (89653) - https://sketch.com -->
    <title>Group 28</title>
    <desc>Created with Sketch.</desc>
    <g id="Screens" stroke="none" stroke-width="1" fill="none" fill-rule="evenodd">
        <g id="03_5_2_API-Details" transform="translate(-1152.000000, -263.000000)">
            <g id="Group-7" transform="translate(1015.000000, 262.000000)">
                <g id="Group-28" transform="translate(134.000000, 0.000000)">
                    <polygon id="Path" points="0 0 19 0 19 19 0 19"></polygon>
                    <path d="M11.0833333,1.58333333 L4.75,1.58333333 C3.87916667,1.58333333 3.17458333,2.29583333 3.17458333,3.16666667 L3.16666667,15.8333333 C3.16666667,16.7041667 3.87125,17.4166667 4.74208333,17.4166667 L14.25,17.4166667 C15.1208333,17.4166667 15.8333333,16.7041667 15.8333333,15.8333333 L15.8333333,6.33333333 L11.0833333,1.58333333 Z M4.75,15.8333333 L4.75,3.16666667 L10.2916667,3.16666667 L10.2916667,7.125 L14.25,7.125 L14.25,15.8333333 L4.75,15.8333333 Z" id="Shape" fill="#0089CF" fill-rule="nonzero"></path>
                </g>
            </g>
        </g>
    </g>
</svg>