<?xml version="1.0" encoding="UTF-8"?>
<svg width="20px" height="14px" viewBox="0 0 20 14" version="1.1" xmlns="http://www.w3.org/2000/svg" xmlns:xlink="http://www.w3.org/1999/xlink">
    <!-- Generator: Sketch 61.2 (89653) - https://sketch.com -->
    <title>cloud_download-24px 2</title>
    <desc>Created with Sketch.</desc>
    <g id="Screens" stroke="none" stroke-width="1" fill="none" fill-rule="evenodd">
        <g id="03_2_API-Details" transform="translate(-1096.000000, -603.000000)">
            <g id="Group-32" transform="translate(1082.000000, 591.000000)">
                <g id="Group-6" transform="translate(14.000000, 9.000000)">
                    <g id="cloud_download-24px-2">
                        <g id="cloud_download-24px">
                            <polygon id="Path" points="0 0 20 0 20 20 0 20"></polygon>
                            <path d="M16.125,8.36666667 C15.5583333,5.49166667 13.0333333,3.33333333 10,3.33333333 C7.59166667,3.33333333 5.5,4.7 4.45833333,6.7 C1.95,6.96666667 0,9.09166667 0,11.6666667 C0,14.425 2.24166667,16.6666667 5,16.6666667 L15.8333333,16.6666667 C18.1333333,16.6666667 20,14.8 20,12.5 C20,10.3 18.2916667,8.51666667 16.125,8.36666667 Z M15.8333333,15 L5,15 C3.15833333,15 1.66666667,13.5083333 1.66666667,11.6666667 C1.66666667,9.95833333 2.94166667,8.53333333 4.63333333,8.35833333 L5.525,8.26666667 L5.94166667,7.475 C6.73333333,5.95 8.28333333,5 10,5 C12.1833333,5 14.0666667,6.55 14.4916667,8.69166667 L14.7416667,9.94166667 L16.0166667,10.0333333 C17.3166667,10.1166667 18.3333333,11.2083333 18.3333333,12.5 C18.3333333,13.875 17.2083333,15 15.8333333,15 Z M11.2083333,8.33333333 L8.79166667,8.33333333 L8.79166667,10.8333333 L6.66666667,10.8333333 L10,14.1666667 L13.3333333,10.8333333 L11.2083333,10.8333333 L11.2083333,8.33333333 Z" id="Shape" fill="#0089CF" fill-rule="nonzero"></path>
                        </g>
                    </g>
                </g>
            </g>
        </g>
    </g>
</svg>