<?xml version="1.0" encoding="UTF-8"?>
<svg width="18px" height="14px" viewBox="0 0 18 14" version="1.1" xmlns="http://www.w3.org/2000/svg" xmlns:xlink="http://www.w3.org/1999/xlink">
    <!-- Generator: Sketch 61.2 (89653) - https://sketch.com -->
    <title>Group 10</title>
    <desc>Created with Sketch.</desc>
    <g id="Screens" stroke="none" stroke-width="1" fill="none" fill-rule="evenodd">
        <g id="03_1_API-Details" transform="translate(-985.000000, -991.000000)">
            <g id="Group-10" transform="translate(984.000000, 988.000000)">
                <polygon id="Path" points="0 0 20 0 20 20 0 20"></polygon>
                <path d="M18.3333333,5 C18.3333333,4.08333333 17.5833333,3.33333333 16.6666667,3.33333333 L3.33333333,3.33333333 C2.41666667,3.33333333 1.66666667,4.08333333 1.66666667,5 L1.66666667,15 C1.66666667,15.9166667 2.41666667,16.6666667 3.33333333,16.6666667 L16.6666667,16.6666667 C17.5833333,16.6666667 18.3333333,15.9166667 18.3333333,15 L18.3333333,5 Z M16.6666667,5 L10,9.15833333 L3.33333333,5 L16.6666667,5 Z M16.6666667,15 L3.33333333,15 L3.33333333,6.66666667 L10,10.8333333 L16.6666667,6.66666667 L16.6666667,15 Z" id="Shape" fill="#0089CF" fill-rule="nonzero"></path>
            </g>
        </g>
    </g>
</svg>