<?xml version="1.0" encoding="UTF-8"?>
<svg width="18px" height="18px" viewBox="0 0 18 18" version="1.1" xmlns="http://www.w3.org/2000/svg" xmlns:xlink="http://www.w3.org/1999/xlink">
    <!-- Generator: Sketch 61.2 (89653) - https://sketch.com -->
    <title>Group 22</title>
    <desc>Created with Sketch.</desc>
    <g id="Screens" stroke="none" stroke-width="1" fill="none" fill-rule="evenodd">
        <g id="01_6_Switch-to-Publisher" transform="translate(-1124.000000, -203.000000)">
            <g id="Group-25" transform="translate(1105.000000, 60.000000)">
                <g id="Group-22" transform="translate(17.000000, 141.000000)">
                    <polygon id="Path" points="0 0 22 0 22 22 0 22"></polygon>
                    <path d="M9.24916667,14.2908333 L10.5416667,15.5833333 L15.125,11 L10.5416667,6.41666667 L9.24916667,7.70916667 L11.6141667,10.0833333 L2.75,10.0833333 L2.75,11.9166667 L11.6141667,11.9166667 L9.24916667,14.2908333 Z M17.4166667,2.75 L4.58333333,2.75 C3.56583333,2.75 2.75,3.575 2.75,4.58333333 L2.75,8.25 L4.58333333,8.25 L4.58333333,4.58333333 L17.4166667,4.58333333 L17.4166667,17.4166667 L4.58333333,17.4166667 L4.58333333,13.75 L2.75,13.75 L2.75,17.4166667 C2.75,18.425 3.56583333,19.25 4.58333333,19.25 L17.4166667,19.25 C18.425,19.25 19.25,18.425 19.25,17.4166667 L19.25,4.58333333 C19.25,3.575 18.425,2.75 17.4166667,2.75 Z" id="Shape" fill="#4D4848" fill-rule="nonzero"></path>
                </g>
            </g>
        </g>
    </g>
</svg>