<?xml version="1.0" encoding="UTF-8"?>
<svg width="20px" height="20px" viewBox="0 0 20 20" version="1.1" xmlns="http://www.w3.org/2000/svg" xmlns:xlink="http://www.w3.org/1999/xlink">
    <!-- Generator: Sketch 61.2 (89653) - https://sketch.com -->
    <title>Group 20</title>
    <desc>Created with Sketch.</desc>
    <g id="Screens" stroke="none" stroke-width="1" fill="none" fill-rule="evenodd">
        <g id="01_6_Switch-to-Publisher" transform="translate(-1123.000000, -125.000000)">
            <g id="Group-25" transform="translate(1105.000000, 60.000000)">
                <g id="Group-20" transform="translate(17.000000, 64.000000)">
                    <polygon id="Path" points="0 0 22 0 22 22 0 22"></polygon>
                    <path d="M11,1.83333333 C5.94,1.83333333 1.83333333,5.94 1.83333333,11 C1.83333333,16.06 5.94,20.1666667 11,20.1666667 C16.06,20.1666667 20.1666667,16.06 20.1666667,11 C20.1666667,5.94 16.06,1.83333333 11,1.83333333 Z M6.48083333,16.7566667 C6.875,15.9316667 9.27666667,15.125 11,15.125 C12.7233333,15.125 15.1341667,15.9316667 15.5191667,16.7566667 C14.2725,17.7466667 12.705,18.3333333 11,18.3333333 C9.295,18.3333333 7.7275,17.7466667 6.48083333,16.7566667 Z M16.83,15.4275 C15.5191667,13.8325 12.3383333,13.2916667 11,13.2916667 C9.66166667,13.2916667 6.48083333,13.8325 5.17,15.4275 C4.235,14.1991667 3.66666667,12.6683333 3.66666667,11 C3.66666667,6.9575 6.9575,3.66666667 11,3.66666667 C15.0425,3.66666667 18.3333333,6.9575 18.3333333,11 C18.3333333,12.6683333 17.765,14.1991667 16.83,15.4275 L16.83,15.4275 Z M11,5.5 C9.22166667,5.5 7.79166667,6.93 7.79166667,8.70833333 C7.79166667,10.4866667 9.22166667,11.9166667 11,11.9166667 C12.7783333,11.9166667 14.2083333,10.4866667 14.2083333,8.70833333 C14.2083333,6.93 12.7783333,5.5 11,5.5 Z M11,10.0833333 C10.2391667,10.0833333 9.625,9.46916667 9.625,8.70833333 C9.625,7.9475 10.2391667,7.33333333 11,7.33333333 C11.7608333,7.33333333 12.375,7.9475 12.375,8.70833333 C12.375,9.46916667 11.7608333,10.0833333 11,10.0833333 Z" id="Shape" fill="#4D4848" fill-rule="nonzero"></path>
                </g>
            </g>
        </g>
    </g>
</svg>