<?xml version="1.0" encoding="UTF-8"?>
<svg width="17px" height="17px" viewBox="0 0 17 17" version="1.1" xmlns="http://www.w3.org/2000/svg" xmlns:xlink="http://www.w3.org/1999/xlink">
    <!-- Generator: Sketch 61.2 (89653) - https://sketch.com -->
    <title>Group 3</title>
    <desc>Created with Sketch.</desc>
    <g id="Screens" stroke="none" stroke-width="1" fill="none" fill-rule="evenodd">
        <g id="01_0_Dashboard-Loading" transform="translate(-853.000000, -34.000000)">
            <g id="Group-3" transform="translate(851.000000, 32.000000)">
                <path d="M14.2083333,12.8333333 L13.4841667,12.8333333 L13.2275,12.5858333 C14.1258333,11.5408333 14.6666667,10.1841667 14.6666667,8.70833333 C14.6666667,5.4175 11.9991667,2.75 8.70833333,2.75 C5.4175,2.75 2.75,5.4175 2.75,8.70833333 C2.75,11.9991667 5.4175,14.6666667 8.70833333,14.6666667 C10.1841667,14.6666667 11.5408333,14.1258333 12.5858333,13.2275 L12.8333333,13.4841667 L12.8333333,14.2083333 L17.4166667,18.7825 L18.7825,17.4166667 L14.2083333,12.8333333 Z M8.70833333,12.8333333 C6.42583333,12.8333333 4.58333333,10.9908333 4.58333333,8.70833333 C4.58333333,6.42583333 6.42583333,4.58333333 8.70833333,4.58333333 C10.9908333,4.58333333 12.8333333,6.42583333 12.8333333,8.70833333 C12.8333333,10.9908333 10.9908333,12.8333333 8.70833333,12.8333333 Z" id="Shape" fill="#4D4848" fill-rule="nonzero"></path>
                <polygon id="Path" points="0 0 22 0 22 22 0 22"></polygon>
            </g>
        </g>
    </g>
</svg>