<?xml version="1.0" encoding="UTF-8"?>
<svg width="18px" height="18px" viewBox="0 0 18 18" version="1.1" xmlns="http://www.w3.org/2000/svg" xmlns:xlink="http://www.w3.org/1999/xlink">
    <!-- Generator: Sketch 61.2 (89653) - https://sketch.com -->
    <title>Group 21</title>
    <desc>Created with Sketch.</desc>
    <g id="Screens" stroke="none" stroke-width="1" fill="none" fill-rule="evenodd">
        <g id="01_6_Switch-to-Publisher" transform="translate(-1124.000000, -165.000000)">
            <g id="Group-25" transform="translate(1105.000000, 60.000000)">
                <g id="Group-21" transform="translate(17.000000, 103.000000)">
                    <polygon id="Path" points="0 0 22 0 22 22 0 22"></polygon>
                    <path d="M2.75,15.5833333 L2.75,17.4166667 L8.25,17.4166667 L8.25,15.5833333 L2.75,15.5833333 Z M2.75,4.58333333 L2.75,6.41666667 L11.9166667,6.41666667 L11.9166667,4.58333333 L2.75,4.58333333 Z M11.9166667,19.25 L11.9166667,17.4166667 L19.25,17.4166667 L19.25,15.5833333 L11.9166667,15.5833333 L11.9166667,13.75 L10.0833333,13.75 L10.0833333,19.25 L11.9166667,19.25 Z M6.41666667,8.25 L6.41666667,10.0833333 L2.75,10.0833333 L2.75,11.9166667 L6.41666667,11.9166667 L6.41666667,13.75 L8.25,13.75 L8.25,8.25 L6.41666667,8.25 Z M19.25,11.9166667 L19.25,10.0833333 L10.0833333,10.0833333 L10.0833333,11.9166667 L19.25,11.9166667 Z M13.75,8.25 L15.5833333,8.25 L15.5833333,6.41666667 L19.25,6.41666667 L19.25,4.58333333 L15.5833333,4.58333333 L15.5833333,2.75 L13.75,2.75 L13.75,8.25 Z" id="Shape" fill="#4D4848" fill-rule="nonzero"></path>
                </g>
            </g>
        </g>
    </g>
</svg>